<svg width="359" height="75" viewBox="0 0 359 75" fill="none" xmlns="http://www.w3.org/2000/svg">
<g clip-path="url(#clip0_3_8)">
<path d="M25.947 0.753026C14.9217 4.3581 5.20893 13.9716 1.66508 24.9203C-1.2225 33.7327 -0.303722 44.281 4.02765 52.8263C6.78398 58.5676 6.91524 59.5024 5.47144 66.5789C4.68392 70.8516 4.29016 74.4567 4.55267 74.8573C4.81517 75.1243 8.49028 73.9226 12.6904 72.3204C19.9094 69.2494 20.5657 69.2494 26.0783 71.2522C33.5598 73.7891 42.6163 72.8544 51.6728 68.3148C77.5297 55.3631 77.3985 16.7756 51.5415 3.28992C45.8976 0.218941 31.591 -1.11627 25.947 0.753026ZM38.2849 6.76148C36.4473 8.23021 35.2661 8.36373 33.8222 7.16204C32.7723 6.36091 31.591 5.42627 31.3284 5.29274C31.0659 5.02571 33.0347 4.89218 35.791 4.89218C40.5162 4.89218 40.6475 5.02571 38.2849 6.76148ZM34.3473 21.3153C34.216 26.5226 34.6097 31.8635 35.266 33.1987C36.0536 34.5338 35.9224 35.7355 35.1348 36.2697C34.3473 36.8037 34.0848 41.8776 34.3473 49.0877L35.0035 60.971H30.6721C28.1783 60.971 25.5532 60.0364 24.6345 58.9682C23.7158 57.9001 22.4031 56.9654 21.6156 56.9654C18.8593 56.9654 14.1342 51.0905 14.1342 47.886C14.1342 44.6815 14.2655 44.6815 16.4967 46.6843C17.8093 48.0195 19.9094 48.9541 20.9594 48.9541C22.1407 48.9541 23.322 50.1558 23.7158 51.6246C24.372 54.4285 28.0471 56.5648 29.4909 55.0962C30.0159 54.6956 29.2284 53.3603 27.7846 52.4257C25.5532 50.69 25.5532 50.0223 26.9971 47.6189C29.2284 43.8804 28.0471 42.6787 24.1095 44.9485C21.3532 46.4173 20.4343 46.2838 16.8905 43.7468C9.67157 38.5395 10.3279 32.3975 18.5969 28.3919C22.9282 26.2556 27.2596 26.6562 27.2596 29.0595C27.2596 29.7271 28.1783 30.2612 29.2284 30.2612C30.2784 30.2612 31.1972 29.7271 31.1972 29.0595C31.1972 28.3919 30.2784 27.1902 29.2284 26.2556C26.9971 24.3863 26.6033 20.1136 28.5721 18.9119C29.3596 18.3778 29.6222 17.4432 29.0971 16.7756C28.0471 14.9062 24.6345 17.9773 24.6345 20.7812C24.6345 22.1164 22.7969 23.5851 19.7781 24.5198C17.0218 25.3209 14.6592 25.855 14.3967 25.7215C13.2154 24.5198 17.153 18.2443 20.9594 15.3068C25.6846 11.7017 29.2284 10.5 32.6409 11.3012C34.3473 11.7017 34.6097 13.4376 34.3473 21.3153ZM52.9853 17.4432C56.1354 20.6477 58.7605 24.5198 58.7605 25.9885C58.7605 28.3919 58.3667 28.5254 54.8229 27.1902C52.7228 26.3891 50.8853 24.9203 50.8853 24.1192C50.8853 21.7158 46.9477 18.1108 45.5038 19.0455C44.7163 19.446 45.1101 20.9147 46.4226 22.3835C48.129 24.3863 48.3914 25.3209 47.2101 26.5226C44.5851 29.193 45.5038 30.1277 49.9664 29.3265C53.7728 28.7925 54.8229 29.3265 57.973 33.0652C62.173 38.1389 61.7793 42.2781 56.6604 47.7524C54.9541 49.6218 53.5103 51.7581 53.5103 52.4257C53.5103 54.6956 47.8664 59.3688 44.1913 60.3035C39.3349 61.5052 38.0224 58.9682 37.8912 48.2866C37.8912 43.0793 37.7598 32.7981 37.7598 25.1874L37.4974 11.5682H42.3538C46.4226 11.5682 48.2602 12.6365 52.9853 17.4432ZM11.9029 22.5169C11.5092 25.7215 10.3279 29.3265 9.14654 30.5282C7.83401 32.1305 7.5715 34.1333 8.09652 37.2043C9.54031 44.281 9.67157 48.2866 8.22777 48.9541C6.52148 49.8888 4.68392 40.0082 5.20893 32.1305C5.60269 27.8579 6.91524 23.7186 8.75278 21.1818C10.3279 18.7784 11.9029 16.9091 12.1654 16.9091C12.4279 16.9091 12.2967 19.446 11.9029 22.5169ZM65.9794 30.5282C66.6357 32.9316 66.3732 34.2669 65.4544 34.2669C63.4856 34.2669 60.9918 29.0596 62.0418 26.6562C62.9606 23.8522 64.7982 25.7215 65.9794 30.5282ZM60.7293 53.4939C58.7605 56.1643 56.9229 58.3007 56.6604 58.3007C55.6104 58.3007 60.3356 49.6218 61.9106 48.6872C64.6669 46.8178 64.1418 48.8206 60.7293 53.4939ZM14.3967 56.9654C16.103 58.3007 18.5969 60.437 20.0406 61.5052C23.322 63.9086 22.4032 64.9767 16.103 65.3772L11.1154 65.6443L10.8529 59.9029C10.7216 56.8319 10.8529 54.295 11.1154 54.295C11.2466 54.295 12.8217 55.4967 14.3967 56.9654ZM39.5974 64.4426C42.7475 65.6443 42.0912 66.9795 38.4161 67.3801C36.3161 67.5136 35.1348 66.9795 35.1348 65.6443C35.1348 63.508 36.3161 63.1074 39.5974 64.4426Z" fill="black"/>
<path d="M21 36.1849C21 37.1594 22.5952 37.7685 24.6813 37.8903C29.3444 38.0122 28.9763 35.454 24.3132 34.9666C22.2271 34.7231 21 35.0885 21 36.1849Z" fill="black"/>
<path d="M45.9001 36.6935C44.2286 38.3078 45 39.6531 47.8286 40.0566C49.5 40.3256 50.9143 41.4018 51.1714 42.6125C51.6857 45.1684 47.9572 49.6076 46.1571 48.5315C45.5143 47.9934 45 48.666 45 49.7422C45 50.9529 45.9001 51.8945 46.9286 51.8945C49.8857 51.8945 54 46.9173 54 43.4197C54 38.5769 48.3429 34.0032 45.9001 36.6935Z" fill="black"/>
<path d="M85.3007 20.2435C73.8003 26.5765 72.7548 45.4411 83.3404 54.0649C85.8234 56.0861 88.6985 56.8945 93.4031 56.8945C99.1537 56.8945 100.33 56.3556 104.903 51.6394C109.608 46.7885 110 45.9801 110 38.569C110 28.8673 106.733 22.5341 100.199 19.7045C94.1873 17.1443 90.6588 17.279 85.3007 20.2435ZM100.199 27.9241C102.682 30.3495 103.466 32.6401 103.466 37.2216C103.466 54.0648 84.7779 55.8166 82.9484 39.108C82.4256 34.1224 82.8176 32.5054 85.8234 28.8673C90.2668 23.4774 95.6251 23.0732 100.199 27.9241Z" fill="black"/>
<path d="M184.27 18.7445C182.537 20.3445 183.337 24.2112 185.603 25.0112C188.403 26.0778 192.003 22.7445 190.937 19.9445C190.137 17.8112 185.87 17.0112 184.27 18.7445Z" fill="black"/>
<path d="M193 21.8279C193 24.4945 193.643 24.8945 198.143 24.8945H203.286V40.8945V56.8945H206.5H209.715V40.8945V24.8945H214.857C219.358 24.8945 220 24.4945 220 21.8279C220 19.0279 219.614 18.8945 206.5 18.8945C193.386 18.8945 193 19.0279 193 21.8279Z" fill="black"/>
<path d="M249.903 24.933C249.903 27.6252 249.252 28.9715 247.952 28.9715C246.91 28.9715 246 30.183 246 31.6637C246 33.1445 246.91 34.356 247.952 34.356C249.513 34.356 249.903 36.2407 249.903 42.8368C249.903 52.933 251.985 55.8945 259.531 55.8945C263.434 55.8945 264.214 55.4907 263.955 53.4714C263.694 52.2599 262.133 50.9138 260.311 50.5099C257.319 49.8368 257.059 49.1638 256.668 42.1637C256.278 34.7599 256.408 34.4906 259.921 34.0868C262.523 33.8176 263.565 32.8752 263.565 30.9907C263.565 28.8368 262.784 28.4329 260.052 28.7022C256.798 29.106 256.408 28.7022 256.408 25.0676C256.408 21.5675 255.888 20.8945 253.156 20.8945C250.423 20.8945 249.903 21.5675 249.903 24.933Z" fill="black"/>
<path d="M119.59 32.0908C118.18 33.5615 117.411 33.8288 117.411 32.7593C117.411 31.8234 116 31.1549 114.206 31.1549C111 31.1549 111 31.1549 111 44.5247C111 57.8945 111 57.8945 114.206 57.8945C117.283 57.8945 117.411 57.6272 117.411 48.6693C117.411 38.642 118.949 35.9681 124.077 36.7703C126.769 37.1714 127.026 37.8398 127.411 47.466C127.795 57.4934 127.923 57.8945 130.872 57.8945C133.949 57.8945 134.077 57.4934 134.077 49.3379C134.077 38.2409 134.846 36.5028 139.206 36.5028C143.564 36.5028 144.334 38.2409 144.334 49.3379C144.334 57.6272 144.462 57.8945 147.667 57.8945H151L150.615 46.3965C150.103 36.2354 149.718 34.631 147.026 32.3582C143.437 29.2831 137.538 29.0157 134.846 31.9571C133.052 33.8288 132.538 33.8288 129.975 31.9571C126.257 29.1495 122.283 29.2831 119.59 32.0908Z" fill="black"/>
<path d="M183.76 30.6983C181.12 31.2342 181 31.9041 181 44.6313C181 57.8945 181 57.8945 184 57.8945H187V43.8275C187 36.0572 186.88 29.8945 186.761 29.8945C186.52 30.0285 185.2 30.4304 183.76 30.6983Z" fill="black"/>
<path d="M220 39.389C220 52.7506 221.867 55.8945 229.333 55.8945C232.133 55.8945 234.933 55.2396 235.333 54.5846C235.733 53.7986 236.8 53.2747 237.467 53.2747C238.267 53.2747 238.4 53.7986 238 54.5846C237.467 55.3706 238.667 55.8945 240.533 55.8945H244V42.9259C244 30.2193 244 29.9573 240.667 29.4333C237.467 28.7783 237.467 28.9094 237.067 38.603C236.8 46.2009 236.133 48.6898 234.4 49.8687C229.733 52.7506 227.333 49.3448 226.667 38.7341C226 29.8263 225.733 29.0403 223.067 28.9094C220.133 28.7783 220 29.3024 220 39.389Z" fill="black"/>
<path d="M270.76 30.569C263.123 34.8304 261.675 46.4163 267.863 52.8085C274.972 59.8667 286.032 57.4696 289.06 48.0144C291.167 41.7554 289.719 36.1622 284.847 32.0338C280.634 28.4381 275.631 27.9055 270.76 30.569ZM281.161 36.6948C286.032 41.6221 283.004 51.3437 276.552 51.3437C270.891 51.3437 268.39 41.3559 272.866 36.4284C275.631 33.3656 277.87 33.3656 281.161 36.6948Z" fill="black"/>
<path d="M294 43.0455V56.8945H297.333C300.533 56.8945 300.667 56.6283 300.667 47.8394C300.667 38.1183 302 35.5882 306.933 35.5882C309.333 35.5882 310 34.7893 310 32.2592C310 28.7969 307.067 27.8647 303.467 30.1285C302.533 30.7943 299.867 30.7943 297.867 30.2617L294 29.0632V43.0455Z" fill="black"/>
<path d="M167.875 31.3945C169.57 31.3945 171.078 31.7527 172.382 32.4853H172.383C173.7 33.2146 174.715 34.3232 175.433 35.7861C176.154 37.2467 176.5 39.0639 176.5 41.2129V57.3945H171.812V41.4707C171.812 39.6144 171.344 38.2385 170.473 37.2754L170.472 37.2734C169.603 36.3044 168.404 35.8008 166.812 35.8008C165.712 35.8008 164.747 36.0455 163.902 36.5234L163.901 36.5224C163.075 36.9965 162.417 37.6904 161.927 38.6191C161.442 39.5377 161.188 40.6742 161.188 42.0488V57.3945H156.5V31.7158H161.062V34.7051C161.613 33.8884 162.313 33.1975 163.161 32.6348C164.411 31.7943 165.995 31.3945 167.875 31.3945Z" fill="black" stroke="black"/>
</g>
<path d="M321.26 36.0385C317.918 45.2522 314.833 53.9394 314.318 55.124C313.547 57.0984 314.062 57.4933 317.147 57.4933C320.361 57.4933 321.26 56.8352 322.161 53.1497C323.318 49.0693 323.703 48.9377 330.645 48.5429L337.844 48.148L339.386 52.8865C340.672 56.7035 341.444 57.4933 344.4 57.4933H348L341.444 38.671C335.016 20.6384 334.63 19.9802 331.031 19.5853C327.174 19.1905 327.174 19.3222 321.26 36.0385ZM335.53 41.6983C335.53 42.0932 333.216 42.488 330.516 42.488C325.76 42.6197 325.502 42.4881 326.531 39.7239C327.174 38.1444 328.331 34.1957 329.103 31.0367L330.645 25.2453L333.087 33.1428C334.373 37.4864 335.53 41.3034 335.53 41.6983Z" fill="black"/>
<path d="M352 37.9933V57.4933H355.501H359V37.9933V18.4933H355.501H352V37.9933Z" fill="black"/>
<defs>
<clipPath id="clip0_3_8">
<rect width="343" height="75" fill="white"/>
</clipPath>
</defs>
</svg>
