<svg width="343" height="75" viewBox="0 0 343 75" fill="none" xmlns="http://www.w3.org/2000/svg">
<path d="M26.3581 0.85729C15.1581 4.45729 5.29146 14.0573 1.69146 24.9906C-1.24187 33.7906 -0.308536 44.324 4.09146 52.8573C6.89146 58.5906 7.0248 59.524 5.55813 66.5906C4.75813 70.8573 4.35813 74.4573 4.6248 74.8573C4.89146 75.124 8.6248 73.924 12.8915 72.324C20.2248 69.2573 20.8915 69.2573 26.4915 71.2573C34.0915 73.7906 43.2915 72.8573 52.4915 68.324C78.7581 55.3906 78.6248 16.8573 52.3581 3.39062C46.6248 0.323956 32.0915 -1.00938 26.3581 0.85729ZM38.8915 6.85729C37.0248 8.32396 35.8248 8.45729 34.3581 7.25729C33.2915 6.45729 32.0915 5.52396 31.8248 5.39062C31.5581 5.12396 33.5581 4.99062 36.3581 4.99062C41.1581 4.99062 41.2915 5.12396 38.8915 6.85729ZM34.8915 21.3906C34.7581 26.5906 35.1581 31.924 35.8248 33.2573C36.6248 34.5906 36.4915 35.7906 35.6915 36.324C34.8915 36.8573 34.6248 41.924 34.8915 49.124L35.5581 60.9906H31.1581C28.6248 60.9906 25.9581 60.0573 25.0248 58.9906C24.0915 57.924 22.7581 56.9906 21.9581 56.9906C19.1581 56.9906 14.3581 51.124 14.3581 47.924C14.3581 44.724 14.4915 44.724 16.7581 46.724C18.0915 48.0573 20.2248 48.9906 21.2915 48.9906C22.4915 48.9906 23.6915 50.1906 24.0915 51.6573C24.7581 54.4573 28.4915 56.5906 29.9581 55.124C30.4915 54.724 29.6915 53.3906 28.2248 52.4573C25.9581 50.724 25.9581 50.0573 27.4248 47.6573C29.6915 43.924 28.4915 42.724 24.4915 44.9906C21.6915 46.4573 20.7581 46.324 17.1581 43.7906C9.8248 38.5906 10.4915 32.4573 18.8915 28.4573C23.2915 26.324 27.6915 26.724 27.6915 29.124C27.6915 29.7906 28.6248 30.324 29.6915 30.324C30.7581 30.324 31.6915 29.7906 31.6915 29.124C31.6915 28.4573 30.7581 27.2573 29.6915 26.324C27.4248 24.4573 27.0248 20.1906 29.0248 18.9906C29.8248 18.4573 30.0915 17.524 29.5581 16.8573C28.4915 14.9906 25.0248 18.0573 25.0248 20.8573C25.0248 22.1906 23.1581 23.6573 20.0915 24.5906C17.2915 25.3906 14.8915 25.924 14.6248 25.7906C13.4248 24.5906 17.4248 18.324 21.2915 15.3906C26.0915 11.7906 29.6915 10.5906 33.1581 11.3906C34.8915 11.7906 35.1581 13.524 34.8915 21.3906ZM53.8248 17.524C57.0248 20.724 59.6915 24.5906 59.6915 26.0573C59.6915 28.4573 59.2915 28.5906 55.6915 27.2573C53.5581 26.4573 51.6915 24.9906 51.6915 24.1906C51.6915 21.7906 47.6915 18.1906 46.2248 19.124C45.4248 19.524 45.8248 20.9906 47.1581 22.4573C48.8915 24.4573 49.1581 25.3906 47.9581 26.5906C45.2915 29.2573 46.2248 30.1906 50.7581 29.3906C54.6248 28.8573 55.6915 29.3906 58.8915 33.124C63.1581 38.1906 62.7581 42.324 57.5581 47.7906C55.8248 49.6573 54.3581 51.7906 54.3581 52.4573C54.3581 54.724 48.6248 59.3906 44.8915 60.324C39.9581 61.524 38.6248 58.9906 38.4915 48.324C38.4915 43.124 38.3581 32.8573 38.3581 25.2573L38.0915 11.6573H43.0248C47.1581 11.6573 49.0248 12.724 53.8248 17.524ZM12.0915 22.5906C11.6915 25.7906 10.4915 29.3906 9.29146 30.5906C7.95813 32.1906 7.69146 34.1906 8.2248 37.2573C9.69146 44.324 9.8248 48.324 8.35813 48.9906C6.6248 49.924 4.75813 40.0573 5.29146 32.1906C5.69146 27.924 7.0248 23.7906 8.89146 21.2573C10.4915 18.8573 12.0915 16.9906 12.3581 16.9906C12.6248 16.9906 12.4915 19.524 12.0915 22.5906ZM67.0248 30.5906C67.6915 32.9906 67.4248 34.324 66.4915 34.324C64.4915 34.324 61.9581 29.124 63.0248 26.724C63.9581 23.924 65.8248 25.7906 67.0248 30.5906ZM61.6915 53.524C59.6915 56.1906 57.8248 58.324 57.5581 58.324C56.4915 58.324 61.2915 49.6573 62.8915 48.724C65.6915 46.8573 65.1581 48.8573 61.6915 53.524ZM14.6248 56.9906C16.3581 58.324 18.8915 60.4573 20.3581 61.524C23.6915 63.924 22.7581 64.9906 16.3581 65.3906L11.2915 65.6573L11.0248 59.924C10.8915 56.8573 11.0248 54.324 11.2915 54.324C11.4248 54.324 13.0248 55.524 14.6248 56.9906ZM40.2248 64.4573C43.4248 65.6573 42.7581 66.9906 39.0248 67.3906C36.8915 67.524 35.6915 66.9906 35.6915 65.6573C35.6915 63.524 36.8915 63.124 40.2248 64.4573Z" fill="black"/>
<path d="M21.0248 35.924C21.0248 36.9906 22.7581 37.6573 25.0248 37.7906C30.0915 37.924 29.6915 35.124 24.6248 34.5906C22.3581 34.324 21.0248 34.724 21.0248 35.924Z" fill="black"/>
<path d="M47.2915 36.5906C45.5581 38.1906 46.3581 39.524 49.2915 39.924C51.0248 40.1906 52.4915 41.2573 52.7581 42.4573C53.2915 44.9906 49.4248 49.3906 47.5581 48.324C46.8915 47.7906 46.3581 48.4573 46.3581 49.524C46.3581 50.724 47.2915 51.6573 48.3581 51.6573C51.4248 51.6573 55.6915 46.724 55.6915 43.2573C55.6915 38.4573 49.8248 33.924 47.2915 36.5906Z" fill="black"/>
<path d="M94.4915 20.724C82.7581 26.9906 81.6915 45.6573 92.4915 54.1906C95.0248 56.1906 97.9581 56.9906 102.758 56.9906C108.625 56.9906 109.825 56.4573 114.491 51.7906C119.291 46.9906 119.691 46.1906 119.691 38.8573C119.691 29.2573 116.358 22.9906 109.691 20.1906C103.558 17.6573 99.9581 17.7906 94.4915 20.724ZM109.691 28.324C112.225 30.724 113.025 32.9906 113.025 37.524C113.025 54.1906 93.9581 55.924 92.0915 39.3906C91.5581 34.4573 91.9581 32.8573 95.0248 29.2573C99.5581 23.924 105.025 23.524 109.691 28.324Z" fill="black"/>
<path d="M169.958 19.2573C168.225 20.8573 169.025 24.724 171.291 25.524C174.091 26.5906 177.691 23.2573 176.625 20.4573C175.825 18.324 171.558 17.524 169.958 19.2573Z" fill="black"/>
<path d="M179.691 21.924C179.691 24.5906 180.358 24.9906 185.025 24.9906H190.358V40.9906V56.9906H193.691H197.025V40.9906V24.9906H202.358C207.025 24.9906 207.691 24.5906 207.691 21.924C207.691 19.124 207.291 18.9906 193.691 18.9906C180.091 18.9906 179.691 19.124 179.691 21.924Z" fill="black"/>
<path d="M304.891 35.2573C301.425 44.5906 298.225 53.3906 297.691 54.5906C296.891 56.5906 297.425 56.9906 300.625 56.9906C303.958 56.9906 304.891 56.324 305.825 52.5906C307.025 48.4573 307.425 48.324 314.625 47.924L322.091 47.524L323.691 52.324C325.025 56.1906 325.825 56.9906 328.891 56.9906H332.625L325.825 37.924C319.158 19.6573 318.758 18.9906 315.025 18.5906C311.025 18.1906 311.025 18.324 304.891 35.2573ZM319.691 40.9906C319.691 41.3906 317.291 41.7906 314.491 41.7906C309.558 41.924 309.291 41.7906 310.358 38.9906C311.025 37.3906 312.225 33.3906 313.025 30.1906L314.625 24.324L317.158 32.324C318.491 36.724 319.691 40.5906 319.691 40.9906Z" fill="black"/>
<path d="M335.691 37.6573V56.9906H339.025H342.358V37.6573V18.324H339.025H335.691V37.6573Z" fill="black"/>
<path d="M237.025 26.324C237.025 28.9906 236.358 30.324 235.025 30.324C233.958 30.324 233.025 31.524 233.025 32.9906C233.025 34.4573 233.958 35.6573 235.025 35.6573C236.625 35.6573 237.025 37.524 237.025 44.0573C237.025 54.0573 239.158 56.9906 246.891 56.9906C250.891 56.9906 251.691 56.5906 251.425 54.5906C251.158 53.3906 249.558 52.0573 247.691 51.6573C244.625 50.9906 244.358 50.324 243.958 43.3906C243.558 36.0573 243.691 35.7906 247.291 35.3906C249.958 35.124 251.025 34.1906 251.025 32.324C251.025 30.1906 250.225 29.7906 247.425 30.0573C244.091 30.4573 243.691 30.0573 243.691 26.4573C243.691 22.9906 243.158 22.324 240.358 22.324C237.558 22.324 237.025 22.9906 237.025 26.324Z" fill="black"/>
<path d="M132.625 31.2573C131.158 32.724 130.358 32.9906 130.358 31.924C130.358 30.9906 128.891 30.324 127.025 30.324C123.691 30.324 123.691 30.324 123.691 43.6573C123.691 56.9906 123.691 56.9906 127.025 56.9906C130.225 56.9906 130.358 56.724 130.358 47.7906C130.358 37.7906 131.958 35.124 137.291 35.924C140.091 36.324 140.358 36.9906 140.758 46.5906C141.158 56.5906 141.291 56.9906 144.358 56.9906C147.558 56.9906 147.691 56.5906 147.691 48.4573C147.691 37.3906 148.491 35.6573 153.025 35.6573C157.558 35.6573 158.358 37.3906 158.358 48.4573C158.358 56.724 158.491 56.9906 161.825 56.9906H165.291L164.891 45.524C164.358 35.3906 163.958 33.7906 161.158 31.524C157.425 28.4573 151.291 28.1906 148.491 31.124C146.625 32.9906 146.091 32.9906 143.425 31.124C139.558 28.324 135.425 28.4573 132.625 31.2573Z" fill="black"/>
<path d="M172.091 29.924C169.158 30.4573 169.025 31.124 169.025 43.7906C169.025 56.9906 169.025 56.9906 172.358 56.9906H175.691V42.9906C175.691 35.2573 175.558 29.124 175.425 29.124C175.158 29.2573 173.691 29.6573 172.091 29.924Z" fill="black"/>
<path d="M206.358 40.1906C206.358 53.7906 208.225 56.9906 215.691 56.9906C218.491 56.9906 221.291 56.324 221.691 55.6573C222.091 54.8573 223.158 54.324 223.825 54.324C224.625 54.324 224.758 54.8573 224.358 55.6573C223.825 56.4573 225.025 56.9906 226.891 56.9906H230.358V43.7906C230.358 30.8573 230.358 30.5906 227.025 30.0573C223.825 29.3906 223.825 29.524 223.425 39.3906C223.158 47.124 222.491 49.6573 220.758 50.8573C216.091 53.7906 213.691 50.324 213.025 39.524C212.358 30.4573 212.091 29.6573 209.425 29.524C206.491 29.3906 206.358 29.924 206.358 40.1906Z" fill="black"/>
<path d="M259.825 30.8573C252.091 35.1239 250.625 46.7239 256.891 53.1239C264.091 60.1906 275.291 57.7906 278.358 48.3239C280.491 42.0573 279.025 36.4573 274.091 32.3239C269.825 28.7239 264.758 28.1906 259.825 30.8573ZM270.358 36.9906C275.291 41.9239 272.225 51.6573 265.691 51.6573C259.958 51.6573 257.425 41.6573 261.958 36.7239C264.758 33.6573 267.025 33.6573 270.358 36.9906Z" fill="black"/>
<path d="M282.358 43.124V56.9906H285.691C288.891 56.9906 289.025 56.724 289.025 47.924C289.025 38.1906 290.358 35.6573 295.291 35.6573C297.691 35.6573 298.358 34.8573 298.358 32.324C298.358 28.8573 295.425 27.924 291.825 30.1906C290.891 30.8573 288.225 30.8573 286.225 30.324L282.358 29.124V43.124Z" fill="black"/>
</svg>
