<?xml version="1.0" standalone="no"?>
<!DOCTYPE svg PUBLIC "-//W3C//DTD SVG 20010904//EN"
 "http://www.w3.org/TR/2001/REC-SVG-20010904/DTD/svg10.dtd">
<svg version="1.0" xmlns="http://www.w3.org/2000/svg"
 width="300.000000pt" height="300.000000pt" viewBox="0 0 300.000000 300.000000"
 preserveAspectRatio="xMidYMid meet">
<metadata>
Created by potrace 1.10, written by Peter Selinger 2001-2011
</metadata>
<g transform="translate(0.000000,300.000000) scale(0.100000,-0.100000)"
fill="#000000" stroke="none">
<path d="M400 1811 c-84 -27 -158 -99 -185 -181 -22 -66 -15 -145 18 -209 21
-43 22 -50 11 -103 -6 -32 -9 -59 -7 -62 2 -2 30 7 62 19 55 23 60 23 102 8
57 -19 126 -12 195 22 197 97 196 386 -1 487 -43 23 -152 33 -195 19z m94 -45
c-14 -11 -23 -12 -34 -3 -8 6 -17 13 -19 14 -2 2 13 3 34 3 36 0 37 -1 19 -14z
m-30 -109 c-1 -39 2 -79 7 -89 6 -10 5 -19 -1 -23 -6 -4 -8 -42 -6 -96 l5 -89
-33 0 c-19 0 -39 7 -46 15 -7 8 -17 15 -23 15 -21 0 -57 44 -57 68 0 24 1 24
18 9 10 -10 26 -17 34 -17 9 0 18 -9 21 -20 5 -21 33 -37 44 -26 4 3 -2 13
-13 20 -17 13 -17 18 -6 36 17 28 8 37 -22 20 -21 -11 -28 -10 -55 9 -55 39
-50 85 13 115 33 16 66 13 66 -5 0 -5 7 -9 15 -9 8 0 15 4 15 9 0 5 -7 14 -15
21 -17 14 -20 46 -5 55 6 4 8 11 4 16 -8 14 -34 -9 -34 -30 0 -10 -14 -21 -37
-28 -21 -6 -39 -10 -41 -9 -9 9 21 56 50 78 36 27 63 36 89 30 13 -3 15 -16
13 -75z m142 29 c24 -24 44 -53 44 -64 0 -18 -3 -19 -30 -9 -16 6 -30 17 -30
23 0 18 -30 45 -41 38 -6 -3 -3 -14 7 -25 13 -15 15 -22 6 -31 -20 -20 -13
-27 21 -21 29 4 37 0 61 -28 32 -38 29 -69 -10 -110 -13 -14 -24 -30 -24 -35
0 -17 -43 -52 -71 -59 -37 -9 -47 10 -48 90 0 39 -1 116 -1 173 l-2 102 37 0
c31 0 45 -8 81 -44z m-313 -38 c-3 -24 -12 -51 -21 -60 -10 -12 -12 -27 -8
-50 11 -53 12 -83 1 -88 -13 -7 -27 67 -23 126 3 32 13 63 27 82 12 18 24 32
26 32 2 0 1 -19 -2 -42z m412 -60 c5 -18 3 -28 -4 -28 -15 0 -34 39 -26 57 7
21 21 7 30 -29z m-40 -172 c-15 -20 -29 -36 -31 -36 -8 0 28 65 40 72 21 14
17 -1 -9 -36z m-353 -26 c13 -10 32 -26 43 -34 25 -18 18 -26 -30 -29 l-38 -2
-2 43 c-1 23 0 42 2 42 1 0 13 -9 25 -20z m192 -56 c24 -9 19 -19 -9 -22 -16
-1 -25 3 -25 13 0 16 9 19 34 9z"/>
<path d="M360 1548 c0 -8 13 -13 30 -14 38 -1 35 20 -3 24 -17 2 -27 -1 -27
-10z"/>
<path d="M557 1543 c-13 -12 -7 -22 15 -25 13 -2 24 -10 26 -19 4 -19 -25 -52
-39 -44 -5 4 -9 -1 -9 -9 0 -9 7 -16 15 -16 23 0 55 37 55 63 0 36 -44 70 -63
50z"/>
<path d="M911 1662 c-88 -47 -96 -187 -15 -251 19 -15 41 -21 77 -21 44 0 53
4 88 39 36 36 39 42 39 97 0 72 -25 119 -75 140 -46 19 -73 18 -114 -4z m114
-57 c19 -18 25 -35 25 -69 0 -125 -143 -138 -157 -14 -4 37 -1 49 22 76 34 40
75 43 110 7z"/>
<path d="M1477 1673 c-13 -12 -7 -41 10 -47 21 -8 48 17 40 38 -6 16 -38 22
-50 9z"/>
<path d="M1550 1653 c0 -20 5 -23 40 -23 l40 0 0 -120 0 -120 25 0 25 0 0 120
0 120 40 0 c35 0 40 3 40 23 0 21 -3 22 -105 22 -102 0 -105 -1 -105 -22z"/>
<path d="M2489 1553 c-26 -70 -50 -136 -54 -145 -6 -15 -2 -18 22 -18 25 0 32
5 39 33 9 31 12 32 66 35 l56 3 12 -36 c10 -29 16 -35 39 -35 l28 0 -51 143
c-50 137 -53 142 -81 145 -30 3 -30 2 -76 -125z m111 -43 c0 -3 -18 -6 -39 -6
-37 -1 -39 0 -31 21 5 12 14 42 20 66 l12 44 19 -60 c10 -33 19 -62 19 -65z"/>
<path d="M2720 1535 l0 -145 25 0 25 0 0 145 0 145 -25 0 -25 0 0 -145z"/>
<path d="M1980 1620 c0 -20 -5 -30 -15 -30 -8 0 -15 -9 -15 -20 0 -11 7 -20
15 -20 12 0 15 -14 15 -63 0 -75 16 -97 74 -97 30 0 36 3 34 18 -2 9 -14 19
-28 22 -23 5 -25 10 -28 62 -3 55 -2 57 25 60 20 2 28 9 28 23 0 16 -6 19 -27
17 -25 -3 -28 0 -28 27 0 26 -4 31 -25 31 -21 0 -25 -5 -25 -30z"/>
<path d="M1197 1583 c-11 -11 -17 -13 -17 -5 0 7 -11 12 -25 12 -25 0 -25 0
-25 -100 0 -100 0 -100 25 -100 24 0 25 2 25 69 0 75 12 95 52 89 21 -3 23 -8
26 -80 3 -75 4 -78 27 -78 24 0 25 3 25 64 0 83 6 96 40 96 34 0 40 -13 40
-96 0 -62 1 -64 26 -64 l26 0 -3 86 c-4 76 -7 88 -28 105 -28 23 -74 25 -95 3
-14 -14 -18 -14 -38 0 -29 21 -60 20 -81 -1z"/>
<path d="M1493 1593 c-22 -4 -23 -9 -23 -104 0 -99 0 -99 25 -99 l25 0 0 105
c0 58 -1 104 -2 104 -2 -1 -13 -4 -25 -6z"/>
<path d="M1750 1516 c0 -102 14 -126 70 -126 21 0 42 5 45 10 3 6 11 10 16 10
6 0 7 -4 4 -10 -4 -6 5 -10 19 -10 l26 0 0 99 c0 97 0 99 -25 103 -24 5 -24 4
-27 -70 -2 -58 -7 -77 -20 -86 -35 -22 -53 4 -58 85 -5 68 -7 74 -27 75 -22 1
-23 -3 -23 -80z"/>
<path d="M2151 1586 c-58 -32 -69 -119 -22 -167 54 -53 138 -35 161 36 16 47
5 89 -32 120 -32 27 -70 31 -107 11z m79 -46 c37 -37 14 -110 -35 -110 -43 0
-62 75 -28 112 21 23 38 23 63 -2z"/>
<path d="M2320 1494 l0 -104 25 0 c24 0 25 2 25 68 0 73 10 92 47 92 18 0 23
6 23 25 0 26 -22 33 -49 16 -7 -5 -27 -5 -42 -1 l-29 9 0 -105z"/>
</g>
</svg>
